<svg width="1290" height="2796" viewBox="0 0 1290 2796" fill="none" xmlns="http://www.w3.org/2000/svg">
  <defs>
    <linearGradient id="shell" x1="174" y1="110" x2="1130" y2="2660" gradientUnits="userSpaceOnUse">
      <stop stop-color="#081521"/>
      <stop offset="1" stop-color="#10293D"/>
    </linearGradient>
    <linearGradient id="wallpaper" x1="150" y1="190" x2="1140" y2="2400" gradientUnits="userSpaceOnUse">
      <stop stop-color="#0FA897"/>
      <stop offset="0.52" stop-color="#0E7080"/>
      <stop offset="1" stop-color="#10293D"/>
    </linearGradient>
    <filter id="deviceShadow" x="18" y="34" width="1254" height="2728" filterUnits="userSpaceOnUse" color-interpolation-filters="sRGB">
      <feDropShadow dx="0" dy="30" stdDeviation="38" flood-color="#031018" flood-opacity="0.28"/>
    </filter>
  </defs>

  <g filter="url(#deviceShadow)">
    <rect x="66" y="82" width="1158" height="2632" rx="170" fill="#09131D"/>
    <rect x="100" y="116" width="1090" height="2564" rx="146" fill="#111E2B"/>
    <rect x="131" y="181" width="1028" height="2238" rx="118" fill="url(#wallpaper)"/>
  </g>

  <rect x="463" y="129" width="364" height="42" rx="21" fill="#0A1420"/>
  <rect x="180" y="275" width="108" height="18" rx="9" fill="#D9F5F1"/>
  <rect x="180" y="310" width="74" height="18" rx="9" fill="#D9F5F1" opacity="0.72"/>
  <circle cx="262" cy="309" r="28" fill="#D9F5F1"/>

  <text x="645" y="560" text-anchor="middle" font-family="Avenir, Helvetica, Arial, sans-serif" font-size="84" font-weight="700" fill="#FFFFFF">Personal Health</text>
  <text x="645" y="638" text-anchor="middle" font-family="Avenir, Helvetica, Arial, sans-serif" font-size="40" font-weight="500" fill="#D9F5F1">heart + strength + dedication</text>

  <rect x="325" y="780" width="640" height="640" rx="152" fill="#000000" fill-opacity="0.08"/>
  <image href="file:///Users/kees/data/projects/personal-health/docs/icon-concepts/icon-heart-strength-dedication.svg" x="293" y="748" width="704" height="704"/>

  <rect x="394" y="2490" width="502" height="10" rx="5" fill="#D9E4EA" opacity="0.7"/>
</svg>
